<svg xmlns="http://www.w3.org/2000/svg" width="1742" height="1754" viewBox="0 0 1742 1754" version="1.1"><path d="M 801.757 489.084 C 734.496 493.636, 671.806 520.306, 620.149 566.344 C 577.562 604.299, 546.073 654.530, 530.094 710 C 517.573 753.467, 514.642 804.126, 522.081 848.500 C 529.248 891.254, 546.550 935.632, 569.254 969.498 C 585.373 993.541, 610.372 1020.993, 633 1039.501 C 675.353 1074.141, 731.909 1098.421, 786 1105.187 C 801.852 1107.169, 845.331 1106.862, 861 1104.656 C 920.650 1096.259, 981.828 1066.707, 1023 1026.400 L 1031.500 1018.078 1043.961 1015.458 C 1093.774 1004.981, 1136.728 982.175, 1170.779 948.123 C 1185.408 933.494, 1199.964 913.200, 1209.342 894.357 C 1239.735 833.289, 1242.743 755.731, 1217.287 689.500 C 1207.847 664.941, 1198.188 649.169, 1183.530 634.380 C 1168.266 618.981, 1156.841 611.473, 1141.271 606.614 C 1109.535 596.709, 1074.623 604.446, 1046.228 627.676 C 1035.014 636.850, 1005.266 666.662, 973.532 700.527 C 965.300 709.312, 953.799 721.450, 947.975 727.500 C 942.151 733.550, 925.950 750.650, 911.972 765.500 C 885.753 793.355, 877.866 801.676, 859.841 820.500 C 837.324 844.016, 830.691 851.039, 827.773 854.455 C 826.108 856.405, 824.201 858, 823.536 858 C 822.871 858, 805.356 840.904, 784.613 820.008 C 763.870 799.113, 746.051 781.563, 745.015 781.008 C 739.816 778.226, 732.139 781.079, 729.423 786.803 C 725.847 794.340, 725.226 793.557, 771.828 840.324 C 795.297 863.877, 815.715 883.789, 817.200 884.574 C 818.686 885.358, 821.520 886, 823.500 886 C 830.258 886, 828.636 887.451, 866.563 847.482 C 875.948 837.592, 896.648 815.809, 912.563 799.076 C 928.478 782.343, 954.280 755.118, 969.900 738.576 C 1043.185 660.965, 1061.581 643.265, 1077.063 635.468 C 1092.286 627.802, 1111.231 624.616, 1125.210 627.369 C 1141.027 630.486, 1152.197 636.554, 1165.023 649 C 1190.062 673.297, 1206.222 716.454, 1210.111 769.409 C 1211.430 787.372, 1210.378 805.953, 1206.905 826 C 1204.392 840.507, 1203.858 842.553, 1198.293 859 C 1181.906 907.426, 1149.403 944.597, 1100.896 970.384 C 1071.755 985.875, 1033.741 995.552, 997.500 996.704 C 967.590 997.654, 947.213 995.114, 911.749 986.014 C 901.003 983.256, 890.209 981, 887.762 981 C 885.315 981, 880.655 981.927, 877.407 983.060 C 868.516 986.160, 848.427 990.737, 840.342 991.505 C 827.657 992.709, 804.939 992.240, 794.500 990.558 C 742.965 982.252, 695.003 951.565, 666.015 908.352 C 649.283 883.408, 638.758 855.605, 633.896 823.500 C 632.089 811.569, 632.367 779.674, 634.389 767 C 646.354 691.995, 699.688 630.146, 769.844 609.917 C 788.513 604.534, 796.415 603.549, 821 603.543 C 841.511 603.538, 845.940 603.828, 855.820 605.820 C 884.970 611.698, 910.086 623.444, 936.909 643.746 C 943.079 648.416, 947.048 649.366, 951.961 647.348 C 954.189 646.432, 966.651 634.495, 986.961 613.821 C 1004.307 596.163, 1019.285 580.542, 1020.243 579.108 C 1021.209 577.664, 1021.990 574.619, 1021.993 572.285 C 1022.001 567.297, 1019.553 564.118, 1009.236 555.722 C 960.871 516.362, 901.974 493.223, 839.500 489.036 C 822.882 487.923, 818.845 487.928, 801.757 489.084 M 808 512.578 C 806.075 512.799, 799.550 513.478, 793.500 514.085 C 740.782 519.378, 690.770 539.686, 649 572.758 C 643.775 576.895, 632.731 587.079, 624.458 595.390 C 576.360 643.707, 549.425 702.470, 543.047 773 C 537.762 831.439, 553.181 898.266, 582.962 946 C 597.408 969.154, 606.926 981.252, 625.311 999.823 C 648.066 1022.810, 666.922 1036.663, 696.316 1051.988 C 749.605 1079.771, 808.358 1089.092, 866.777 1079.031 C 894.150 1074.317, 922.902 1064.515, 946.990 1051.685 C 965.421 1041.868, 993.383 1023.050, 991.837 1021.504 C 991.620 1021.287, 984.931 1020.824, 976.972 1020.474 C 949.994 1019.288, 928.531 1015.893, 903.735 1008.888 C 896.164 1006.750, 889.147 1005, 888.141 1005 C 887.136 1005, 883.655 1005.917, 880.407 1007.037 C 862.382 1013.255, 844.094 1016.007, 820.488 1016.052 C 788.194 1016.115, 759.795 1009.323, 729.500 994.293 C 700.456 979.883, 671.968 956.093, 652.613 930.087 C 633.412 904.287, 622.786 882.093, 614.988 851.500 C 605.762 815.301, 605.744 779.955, 614.936 743.581 C 635.241 663.229, 697.980 600.980, 776.152 583.625 C 803.291 577.600, 833.437 577.224, 860.500 582.574 C 877.278 585.891, 897.836 592.856, 912.169 600.081 C 920.828 604.445, 937.680 614.575, 942.282 618.182 C 944.362 619.812, 946.387 621, 946.782 620.823 C 947.177 620.645, 957.850 609.999, 970.500 597.165 L 993.500 573.829 989.500 570.368 C 978.243 560.629, 949.876 543.664, 931.089 535.435 C 905.759 524.341, 877.896 516.919, 850.714 514.025 C 839.727 512.855, 813.351 511.962, 808 512.578 M 1080.873 666.684 C 1075.424 670.065, 1073.479 677.158, 1076.434 682.872 C 1077.223 684.398, 1080.578 688.012, 1083.891 690.905 C 1105.018 709.353, 1117.308 739.103, 1119.546 777.213 C 1120.909 800.432, 1115.515 826.285, 1104.990 846.978 C 1098.809 859.129, 1086.060 874.507, 1075 883.151 C 1056.114 897.911, 1021.646 908, 990.106 908 C 977.010 908, 974.640 909.348, 963.726 923 C 953.639 935.619, 943.481 945.269, 928.219 956.732 C 920.107 962.825, 917.220 965.521, 918.169 966.115 C 918.901 966.574, 925.474 968.364, 932.776 970.093 L 946.052 973.236 950.276 970.368 C 955.424 966.872, 977.167 945.211, 982 938.764 C 983.925 936.195, 986.625 933.660, 988 933.129 C 989.375 932.598, 995.133 931.898, 1000.796 931.574 C 1023.610 930.267, 1050.581 923.659, 1067.500 915.231 C 1085.802 906.113, 1107.674 887.117, 1117.845 871.505 C 1129.167 854.128, 1137.346 833.314, 1141.182 812.116 C 1143.936 796.902, 1144.162 770.934, 1141.662 757 C 1135.226 721.119, 1123.509 696.324, 1103.709 676.683 C 1091.837 664.907, 1087.087 662.827, 1080.873 666.684 M 896.763 1217.565 C 891.364 1220.495, 889.075 1229.413, 892.414 1234.509 C 895.676 1239.487, 900.783 1241.180, 907.736 1239.588 C 913.911 1238.174, 917.699 1229.187, 914.626 1223.243 C 911.121 1216.465, 903.345 1213.994, 896.763 1217.565 M 801.202 1221.022 C 779.669 1226.663, 762.942 1244.305, 757.132 1267.500 C 749.880 1296.449, 756.878 1327.080, 774.723 1344.502 C 788 1357.466, 810.371 1363.310, 830.500 1359.074 C 849.257 1355.126, 864.622 1340.490, 870.384 1321.080 C 871.269 1318.099, 871.882 1315.553, 871.747 1315.423 C 871.342 1315.034, 864.906 1314.789, 858.500 1314.918 L 852.500 1315.040 849.286 1321.884 C 845.393 1330.174, 840.336 1335.461, 833 1338.912 C 828.142 1341.196, 826.273 1341.492, 817 1341.446 C 803.132 1341.377, 796.792 1339.024, 789 1331.056 C 779.218 1321.052, 775 1308.561, 775 1289.595 C 775 1258.136, 790.989 1238.052, 816.068 1238.011 C 832.355 1237.984, 845.072 1246.264, 850.155 1260.204 L 852.268 1266 861.634 1266 C 872.426 1266, 872.378 1266.061, 869.407 1255.932 C 866.969 1247.624, 862.613 1240.803, 855.491 1234.140 C 841.148 1220.723, 820.961 1215.845, 801.202 1221.022 M 1165.500 1219.922 C 1152.172 1221.570, 1142 1226.716, 1131.986 1236.876 C 1119.939 1249.098, 1113.608 1264.779, 1112.353 1285.500 C 1111.630 1297.432, 1112.989 1307.313, 1116.928 1318.761 C 1124.347 1340.328, 1138.770 1354.147, 1159 1359.069 C 1166.586 1360.915, 1183.268 1360.580, 1191.140 1358.422 C 1206.237 1354.285, 1218.842 1344.350, 1226.547 1330.513 C 1239.407 1307.417, 1239.113 1271.517, 1225.877 1248.803 C 1213.668 1227.854, 1190.601 1216.820, 1165.500 1219.922 M 300.321 1222.607 C 299.967 1223.529, 299.974 1248.857, 300.337 1278.892 C 300.699 1308.926, 300.997 1339.013, 300.998 1345.750 L 301 1358 343 1358 L 385 1358 385 1349.500 L 385 1341 353.508 1341 L 322.016 1341 321.758 1281.250 L 321.500 1221.500 311.232 1221.215 C 302.381 1220.969, 300.875 1221.161, 300.321 1222.607 M 407 1289.500 L 407 1358 420.750 1358.097 C 428.313 1358.151, 438.775 1358.181, 444 1358.164 C 449.225 1358.147, 462.163 1358.104, 472.750 1358.067 L 492 1358 492 1349.514 L 492 1341.028 459.750 1340.764 L 427.500 1340.500 427.296 1282.500 C 427.184 1250.600, 427.071 1223.713, 427.046 1222.750 C 427.005 1221.203, 425.840 1221, 417 1221 L 407 1221 407 1289.500 M 513.903 1245.220 C 513.803 1270.350, 513.828 1347.645, 513.938 1354.250 L 514 1358 523.822 1358 L 533.644 1358 533.572 1307.500 C 533.533 1279.726, 533.777 1257.001, 534.116 1257 C 534.455 1257, 537.304 1263.188, 540.447 1270.750 C 543.591 1278.313, 550.599 1295.075, 556.022 1308 C 561.445 1320.925, 568.318 1337.350, 571.297 1344.500 L 576.712 1357.500 584.664 1357.787 L 592.617 1358.075 599.759 1340.787 C 610.675 1314.367, 631.428 1265.051, 633.757 1260 L 635.831 1255.500 635.929 1304.500 C 635.983 1331.450, 636.299 1354.513, 636.630 1355.750 C 637.201 1357.881, 637.731 1358, 646.624 1358 L 656.014 1358 655.757 1289.750 L 655.500 1221.500 643.209 1221.219 L 630.918 1220.938 628.562 1226.219 C 626.507 1230.826, 612.227 1264.349, 592.022 1312 C 588.641 1319.975, 585.545 1326.834, 585.144 1327.243 C 584.742 1327.652, 583.024 1324.727, 581.325 1320.743 C 572.971 1301.153, 558.132 1266.077, 549.282 1245 L 539.414 1221.500 526.707 1221.220 L 514 1220.940 513.903 1245.220 M 946 1243.500 L 946 1256 938.500 1256 L 931 1256 931 1264 L 931 1272 938.419 1272 L 945.838 1272 946.258 1305.750 C 946.710 1342.124, 946.970 1344.081, 952.176 1350.398 C 958.187 1357.689, 972.841 1361.677, 983.888 1359.027 C 989.428 1357.698, 989.569 1357.416, 988.058 1350.693 C 987.539 1348.387, 986.864 1345.295, 986.557 1343.822 C 986.015 1341.224, 985.836 1341.161, 980.535 1341.709 C 977.120 1342.061, 973.916 1341.794, 971.989 1340.995 C 966.213 1338.603, 966 1337.252, 966 1303.050 L 966 1272 976.500 1272 L 987 1272 987 1264 L 987 1256 976.500 1256 L 966 1256 966 1243.500 L 966 1231 956 1231 L 946 1231 946 1243.500 M 1163.223 1239.488 C 1152.253 1242.575, 1142.067 1251.765, 1137.112 1263.046 C 1134.266 1269.523, 1132.742 1279.110, 1132.747 1290.500 C 1132.757 1314.001, 1141.645 1331.432, 1157.278 1338.608 C 1162.856 1341.169, 1164.589 1341.466, 1174.018 1341.482 C 1183.874 1341.499, 1184.949 1341.296, 1191.123 1338.259 C 1207.908 1330, 1217.233 1309.914, 1215.617 1285.500 C 1214.185 1263.881, 1205.951 1249.039, 1191.417 1241.884 C 1183.698 1238.085, 1171.803 1237.073, 1163.223 1239.488 M 1041.500 1255.062 C 1024.081 1257.695, 1009.942 1270.841, 1004.416 1289.543 C 1002.055 1297.531, 1001.989 1316.099, 1004.290 1324.735 C 1010.373 1347.568, 1026.888 1360.089, 1051 1360.152 C 1065.627 1360.189, 1074.855 1357.185, 1083.794 1349.473 C 1087.506 1346.271, 1094.824 1334.491, 1093.762 1333.428 C 1093.426 1333.093, 1085.672 1331.100, 1078.750 1329.570 C 1077.237 1329.235, 1076 1329.357, 1076 1329.840 C 1076 1332.196, 1067.588 1339.992, 1063.263 1341.644 C 1053.743 1345.279, 1039.251 1343.129, 1031.782 1336.972 C 1027.265 1333.248, 1023.151 1325.068, 1022.336 1318.189 L 1021.721 1313 1058.500 1313 L 1095.279 1313 1094.730 1301.750 C 1093.991 1286.594, 1090.238 1276.439, 1082.129 1267.650 C 1072.917 1257.666, 1056.968 1252.724, 1041.500 1255.062 M 1303.338 1255.078 C 1294.899 1255.902, 1287.113 1259.905, 1281.523 1266.295 L 1277 1271.466 1277 1263.733 L 1277 1256 1267.493 1256 L 1257.986 1256 1258.243 1326.250 L 1258.500 1396.500 1268 1396.500 L 1277.500 1396.500 1277.442 1370.250 C 1277.411 1355.813, 1277.748 1344, 1278.192 1344 C 1278.637 1344, 1279 1344.400, 1279 1344.888 C 1279 1346.749, 1288.050 1354.847, 1292.671 1357.122 C 1296.907 1359.208, 1298.912 1359.500, 1309 1359.500 C 1319.507 1359.500, 1320.981 1359.264, 1326.071 1356.764 C 1336.610 1351.588, 1345.372 1340.923, 1349.292 1328.500 C 1352.426 1318.565, 1352.397 1297.744, 1349.234 1287.458 C 1342.460 1265.428, 1324.817 1252.981, 1303.338 1255.078 M 1401 1255.074 C 1388.584 1257.075, 1378.087 1264.004, 1373.274 1273.377 C 1367.999 1283.650, 1370.533 1297.021, 1379.155 1304.401 C 1384.174 1308.697, 1390.928 1311.243, 1406.204 1314.596 C 1425.797 1318.898, 1430 1321.763, 1430 1330.815 C 1430 1338.850, 1422.449 1343.944, 1410.500 1343.972 C 1398.042 1344.002, 1391.241 1340.723, 1387.287 1332.781 C 1385.182 1328.554, 1384.654 1328.119, 1382.219 1328.602 C 1380.723 1328.898, 1376.800 1329.672, 1373.500 1330.320 C 1367.925 1331.416, 1367.524 1331.677, 1367.841 1334 C 1368.440 1338.387, 1373.272 1346.059, 1378.261 1350.545 C 1388.392 1359.653, 1407.413 1362.801, 1425.683 1358.392 C 1431.187 1357.064, 1439.673 1352.104, 1443.287 1348.104 C 1448.433 1342.408, 1450 1338.029, 1450 1329.346 C 1450 1320.913, 1448.652 1316.951, 1443.970 1311.618 C 1438.570 1305.469, 1431.886 1302.639, 1411.946 1298.062 C 1404.900 1296.445, 1397.783 1294.422, 1396.129 1293.567 C 1387.294 1288.998, 1388.080 1277.560, 1397.544 1272.979 C 1402.160 1270.744, 1414.808 1270.221, 1419.685 1272.064 C 1423.177 1273.383, 1427.702 1277.587, 1429.655 1281.327 C 1430.971 1283.848, 1431.530 1284.094, 1434.815 1283.604 C 1436.842 1283.301, 1440.638 1282.765, 1443.250 1282.413 C 1449.125 1281.621, 1449.320 1280.257, 1444.781 1271.741 C 1441.001 1264.648, 1435.524 1260.250, 1426.591 1257.131 C 1420.011 1254.834, 1408.321 1253.895, 1401 1255.074 M 893.932 1269.750 C 893.877 1280.617, 893.921 1351.374, 893.985 1356.750 C 893.996 1357.661, 896.575 1358, 903.500 1358 L 913 1358 913 1307 L 913 1256 903.500 1256 L 894 1256 893.932 1269.750 M 1039.759 1272.423 C 1034.263 1274.385, 1031.320 1276.575, 1027.970 1281.200 C 1025.254 1284.950, 1022 1293.387, 1022 1296.682 C 1022 1297.740, 1027.334 1298, 1049.088 1298 L 1076.176 1298 1075.488 1293.750 C 1073.167 1279.393, 1063.118 1270.918, 1048.568 1271.044 C 1045.781 1271.068, 1041.817 1271.689, 1039.759 1272.423 M 1296.332 1272.872 C 1293.490 1273.843, 1289.654 1275.789, 1287.807 1277.198 C 1280.354 1282.883, 1276.170 1296.497, 1277.388 1311.103 C 1279.100 1331.632, 1287.945 1341.969, 1304.500 1342.791 C 1313.846 1343.255, 1320.975 1339.841, 1325.650 1332.664 C 1334.103 1319.688, 1334.123 1294.482, 1325.691 1282.540 C 1319.037 1273.118, 1307.113 1269.191, 1296.332 1272.872 M 680 1300.484 L 680 1309 707.540 1309 L 735.081 1309 734.790 1300.750 L 734.500 1292.500 707.250 1292.234 L 680 1291.968 680 1300.484" stroke="none" fill="#faede6" fill-rule="evenodd"/><path d="M 0 877.001 L 0 1754.001 871.250 1753.751 L 1742.500 1753.500 1742.751 876.750 L 1743.001 0 871.501 0 L 0 0 0 877.001 M 0.498 877.500 C 0.498 1359.850, 0.611 1557.325, 0.750 1316.332 C 0.889 1075.340, 0.889 680.690, 0.750 439.332 C 0.611 197.975, 0.498 395.150, 0.498 877.500 M 801.757 489.084 C 734.496 493.636, 671.806 520.306, 620.149 566.344 C 577.562 604.299, 546.073 654.530, 530.094 710 C 517.573 753.467, 514.642 804.126, 522.081 848.500 C 529.248 891.254, 546.550 935.632, 569.254 969.498 C 585.373 993.541, 610.372 1020.993, 633 1039.501 C 675.353 1074.141, 731.909 1098.421, 786 1105.187 C 801.852 1107.169, 845.331 1106.862, 861 1104.656 C 920.650 1096.259, 981.828 1066.707, 1023 1026.400 L 1031.500 1018.078 1043.961 1015.458 C 1093.774 1004.981, 1136.728 982.175, 1170.779 948.123 C 1185.408 933.494, 1199.964 913.200, 1209.342 894.357 C 1239.735 833.289, 1242.743 755.731, 1217.287 689.500 C 1207.847 664.941, 1198.188 649.169, 1183.530 634.380 C 1168.266 618.981, 1156.841 611.473, 1141.271 606.614 C 1109.535 596.709, 1074.623 604.446, 1046.228 627.676 C 1035.014 636.850, 1005.266 666.662, 973.532 700.527 C 965.300 709.312, 953.799 721.450, 947.975 727.500 C 942.151 733.550, 925.950 750.650, 911.972 765.500 C 885.753 793.355, 877.866 801.676, 859.841 820.500 C 837.324 844.016, 830.691 851.039, 827.773 854.455 C 826.108 856.405, 824.201 858, 823.536 858 C 822.871 858, 805.356 840.904, 784.613 820.008 C 763.870 799.113, 746.051 781.563, 745.015 781.008 C 739.816 778.226, 732.139 781.079, 729.423 786.803 C 725.847 794.340, 725.226 793.557, 771.828 840.324 C 795.297 863.877, 815.715 883.789, 817.200 884.574 C 818.686 885.358, 821.520 886, 823.500 886 C 830.258 886, 828.636 887.451, 866.563 847.482 C 875.948 837.592, 896.648 815.809, 912.563 799.076 C 928.478 782.343, 954.280 755.118, 969.900 738.576 C 1043.185 660.965, 1061.581 643.265, 1077.063 635.468 C 1092.286 627.802, 1111.231 624.616, 1125.210 627.369 C 1141.027 630.486, 1152.197 636.554, 1165.023 649 C 1190.062 673.297, 1206.222 716.454, 1210.111 769.409 C 1211.430 787.372, 1210.378 805.953, 1206.905 826 C 1204.392 840.507, 1203.858 842.553, 1198.293 859 C 1181.906 907.426, 1149.403 944.597, 1100.896 970.384 C 1071.755 985.875, 1033.741 995.552, 997.500 996.704 C 967.590 997.654, 947.213 995.114, 911.749 986.014 C 901.003 983.256, 890.209 981, 887.762 981 C 885.315 981, 880.655 981.927, 877.407 983.060 C 868.516 986.160, 848.427 990.737, 840.342 991.505 C 827.657 992.709, 804.939 992.240, 794.500 990.558 C 742.965 982.252, 695.003 951.565, 666.015 908.352 C 649.283 883.408, 638.758 855.605, 633.896 823.500 C 632.089 811.569, 632.367 779.674, 634.389 767 C 646.354 691.995, 699.688 630.146, 769.844 609.917 C 788.513 604.534, 796.415 603.549, 821 603.543 C 841.511 603.538, 845.940 603.828, 855.820 605.820 C 884.970 611.698, 910.086 623.444, 936.909 643.746 C 943.079 648.416, 947.048 649.366, 951.961 647.348 C 954.189 646.432, 966.651 634.495, 986.961 613.821 C 1004.307 596.163, 1019.285 580.542, 1020.243 579.108 C 1021.209 577.664, 1021.990 574.619, 1021.993 572.285 C 1022.001 567.297, 1019.553 564.118, 1009.236 555.722 C 960.871 516.362, 901.974 493.223, 839.500 489.036 C 822.882 487.923, 818.845 487.928, 801.757 489.084 M 808 512.578 C 806.075 512.799, 799.550 513.478, 793.500 514.085 C 740.782 519.378, 690.770 539.686, 649 572.758 C 643.775 576.895, 632.731 587.079, 624.458 595.390 C 576.360 643.707, 549.425 702.470, 543.047 773 C 537.762 831.439, 553.181 898.266, 582.962 946 C 597.408 969.154, 606.926 981.252, 625.311 999.823 C 648.066 1022.810, 666.922 1036.663, 696.316 1051.988 C 749.605 1079.771, 808.358 1089.092, 866.777 1079.031 C 894.150 1074.317, 922.902 1064.515, 946.990 1051.685 C 965.421 1041.868, 993.383 1023.050, 991.837 1021.504 C 991.620 1021.287, 984.931 1020.824, 976.972 1020.474 C 949.994 1019.288, 928.531 1015.893, 903.735 1008.888 C 896.164 1006.750, 889.147 1005, 888.141 1005 C 887.136 1005, 883.655 1005.917, 880.407 1007.037 C 862.382 1013.255, 844.094 1016.007, 820.488 1016.052 C 788.194 1016.115, 759.795 1009.323, 729.500 994.293 C 700.456 979.883, 671.968 956.093, 652.613 930.087 C 633.412 904.287, 622.786 882.093, 614.988 851.500 C 605.762 815.301, 605.744 779.955, 614.936 743.581 C 635.241 663.229, 697.980 600.980, 776.152 583.625 C 803.291 577.600, 833.437 577.224, 860.500 582.574 C 877.278 585.891, 897.836 592.856, 912.169 600.081 C 920.828 604.445, 937.680 614.575, 942.282 618.182 C 944.362 619.812, 946.387 621, 946.782 620.823 C 947.177 620.645, 957.850 609.999, 970.500 597.165 L 993.500 573.829 989.500 570.368 C 978.243 560.629, 949.876 543.664, 931.089 535.435 C 905.759 524.341, 877.896 516.919, 850.714 514.025 C 839.727 512.855, 813.351 511.962, 808 512.578 M 1080.873 666.684 C 1075.424 670.065, 1073.479 677.158, 1076.434 682.872 C 1077.223 684.398, 1080.578 688.012, 1083.891 690.905 C 1105.018 709.353, 1117.308 739.103, 1119.546 777.213 C 1120.909 800.432, 1115.515 826.285, 1104.990 846.978 C 1098.809 859.129, 1086.060 874.507, 1075 883.151 C 1056.114 897.911, 1021.646 908, 990.106 908 C 977.010 908, 974.640 909.348, 963.726 923 C 953.639 935.619, 943.481 945.269, 928.219 956.732 C 920.107 962.825, 917.220 965.521, 918.169 966.115 C 918.901 966.574, 925.474 968.364, 932.776 970.093 L 946.052 973.236 950.276 970.368 C 955.424 966.872, 977.167 945.211, 982 938.764 C 983.925 936.195, 986.625 933.660, 988 933.129 C 989.375 932.598, 995.133 931.898, 1000.796 931.574 C 1023.610 930.267, 1050.581 923.659, 1067.500 915.231 C 1085.802 906.113, 1107.674 887.117, 1117.845 871.505 C 1129.167 854.128, 1137.346 833.314, 1141.182 812.116 C 1143.936 796.902, 1144.162 770.934, 1141.662 757 C 1135.226 721.119, 1123.509 696.324, 1103.709 676.683 C 1091.837 664.907, 1087.087 662.827, 1080.873 666.684 M 896.763 1217.565 C 891.364 1220.495, 889.075 1229.413, 892.414 1234.509 C 895.676 1239.487, 900.783 1241.180, 907.736 1239.588 C 913.911 1238.174, 917.699 1229.187, 914.626 1223.243 C 911.121 1216.465, 903.345 1213.994, 896.763 1217.565 M 801.202 1221.022 C 779.669 1226.663, 762.942 1244.305, 757.132 1267.500 C 749.880 1296.449, 756.878 1327.080, 774.723 1344.502 C 788 1357.466, 810.371 1363.310, 830.500 1359.074 C 849.257 1355.126, 864.622 1340.490, 870.384 1321.080 C 871.269 1318.099, 871.882 1315.553, 871.747 1315.423 C 871.342 1315.034, 864.906 1314.789, 858.500 1314.918 L 852.500 1315.040 849.286 1321.884 C 845.393 1330.174, 840.336 1335.461, 833 1338.912 C 828.142 1341.196, 826.273 1341.492, 817 1341.446 C 803.132 1341.377, 796.792 1339.024, 789 1331.056 C 779.218 1321.052, 775 1308.561, 775 1289.595 C 775 1258.136, 790.989 1238.052, 816.068 1238.011 C 832.355 1237.984, 845.072 1246.264, 850.155 1260.204 L 852.268 1266 861.634 1266 C 872.426 1266, 872.378 1266.061, 869.407 1255.932 C 866.969 1247.624, 862.613 1240.803, 855.491 1234.140 C 841.148 1220.723, 820.961 1215.845, 801.202 1221.022 M 1165.500 1219.922 C 1152.172 1221.570, 1142 1226.716, 1131.986 1236.876 C 1119.939 1249.098, 1113.608 1264.779, 1112.353 1285.500 C 1111.630 1297.432, 1112.989 1307.313, 1116.928 1318.761 C 1124.347 1340.328, 1138.770 1354.147, 1159 1359.069 C 1166.586 1360.915, 1183.268 1360.580, 1191.140 1358.422 C 1206.237 1354.285, 1218.842 1344.350, 1226.547 1330.513 C 1239.407 1307.417, 1239.113 1271.517, 1225.877 1248.803 C 1213.668 1227.854, 1190.601 1216.820, 1165.500 1219.922 M 300.321 1222.607 C 299.967 1223.529, 299.974 1248.857, 300.337 1278.892 C 300.699 1308.926, 300.997 1339.013, 300.998 1345.750 L 301 1358 343 1358 L 385 1358 385 1349.500 L 385 1341 353.508 1341 L 322.016 1341 321.758 1281.250 L 321.500 1221.500 311.232 1221.215 C 302.381 1220.969, 300.875 1221.161, 300.321 1222.607 M 407 1289.500 L 407 1358 420.750 1358.097 C 428.313 1358.151, 438.775 1358.181, 444 1358.164 C 449.225 1358.147, 462.163 1358.104, 472.750 1358.067 L 492 1358 492 1349.514 L 492 1341.028 459.750 1340.764 L 427.500 1340.500 427.296 1282.500 C 427.184 1250.600, 427.071 1223.713, 427.046 1222.750 C 427.005 1221.203, 425.840 1221, 417 1221 L 407 1221 407 1289.500 M 513.903 1245.220 C 513.803 1270.350, 513.828 1347.645, 513.938 1354.250 L 514 1358 523.822 1358 L 533.644 1358 533.572 1307.500 C 533.533 1279.726, 533.777 1257.001, 534.116 1257 C 534.455 1257, 537.304 1263.188, 540.447 1270.750 C 543.591 1278.313, 550.599 1295.075, 556.022 1308 C 561.445 1320.925, 568.318 1337.350, 571.297 1344.500 L 576.712 1357.500 584.664 1357.787 L 592.617 1358.075 599.759 1340.787 C 610.675 1314.367, 631.428 1265.051, 633.757 1260 L 635.831 1255.500 635.929 1304.500 C 635.983 1331.450, 636.299 1354.513, 636.630 1355.750 C 637.201 1357.881, 637.731 1358, 646.624 1358 L 656.014 1358 655.757 1289.750 L 655.500 1221.500 643.209 1221.219 L 630.918 1220.938 628.562 1226.219 C 626.507 1230.826, 612.227 1264.349, 592.022 1312 C 588.641 1319.975, 585.545 1326.834, 585.144 1327.243 C 584.742 1327.652, 583.024 1324.727, 581.325 1320.743 C 572.971 1301.153, 558.132 1266.077, 549.282 1245 L 539.414 1221.500 526.707 1221.220 L 514 1220.940 513.903 1245.220 M 946 1243.500 L 946 1256 938.500 1256 L 931 1256 931 1264 L 931 1272 938.419 1272 L 945.838 1272 946.258 1305.750 C 946.710 1342.124, 946.970 1344.081, 952.176 1350.398 C 958.187 1357.689, 972.841 1361.677, 983.888 1359.027 C 989.428 1357.698, 989.569 1357.416, 988.058 1350.693 C 987.539 1348.387, 986.864 1345.295, 986.557 1343.822 C 986.015 1341.224, 985.836 1341.161, 980.535 1341.709 C 977.120 1342.061, 973.916 1341.794, 971.989 1340.995 C 966.213 1338.603, 966 1337.252, 966 1303.050 L 966 1272 976.500 1272 L 987 1272 987 1264 L 987 1256 976.500 1256 L 966 1256 966 1243.500 L 966 1231 956 1231 L 946 1231 946 1243.500 M 1163.223 1239.488 C 1152.253 1242.575, 1142.067 1251.765, 1137.112 1263.046 C 1134.266 1269.523, 1132.742 1279.110, 1132.747 1290.500 C 1132.757 1314.001, 1141.645 1331.432, 1157.278 1338.608 C 1162.856 1341.169, 1164.589 1341.466, 1174.018 1341.482 C 1183.874 1341.499, 1184.949 1341.296, 1191.123 1338.259 C 1207.908 1330, 1217.233 1309.914, 1215.617 1285.500 C 1214.185 1263.881, 1205.951 1249.039, 1191.417 1241.884 C 1183.698 1238.085, 1171.803 1237.073, 1163.223 1239.488 M 1041.500 1255.062 C 1024.081 1257.695, 1009.942 1270.841, 1004.416 1289.543 C 1002.055 1297.531, 1001.989 1316.099, 1004.290 1324.735 C 1010.373 1347.568, 1026.888 1360.089, 1051 1360.152 C 1065.627 1360.189, 1074.855 1357.185, 1083.794 1349.473 C 1087.506 1346.271, 1094.824 1334.491, 1093.762 1333.428 C 1093.426 1333.093, 1085.672 1331.100, 1078.750 1329.570 C 1077.237 1329.235, 1076 1329.357, 1076 1329.840 C 1076 1332.196, 1067.588 1339.992, 1063.263 1341.644 C 1053.743 1345.279, 1039.251 1343.129, 1031.782 1336.972 C 1027.265 1333.248, 1023.151 1325.068, 1022.336 1318.189 L 1021.721 1313 1058.500 1313 L 1095.279 1313 1094.730 1301.750 C 1093.991 1286.594, 1090.238 1276.439, 1082.129 1267.650 C 1072.917 1257.666, 1056.968 1252.724, 1041.500 1255.062 M 1303.338 1255.078 C 1294.899 1255.902, 1287.113 1259.905, 1281.523 1266.295 L 1277 1271.466 1277 1263.733 L 1277 1256 1267.493 1256 L 1257.986 1256 1258.243 1326.250 L 1258.500 1396.500 1268 1396.500 L 1277.500 1396.500 1277.442 1370.250 C 1277.411 1355.813, 1277.748 1344, 1278.192 1344 C 1278.637 1344, 1279 1344.400, 1279 1344.888 C 1279 1346.749, 1288.050 1354.847, 1292.671 1357.122 C 1296.907 1359.208, 1298.912 1359.500, 1309 1359.500 C 1319.507 1359.500, 1320.981 1359.264, 1326.071 1356.764 C 1336.610 1351.588, 1345.372 1340.923, 1349.292 1328.500 C 1352.426 1318.565, 1352.397 1297.744, 1349.234 1287.458 C 1342.460 1265.428, 1324.817 1252.981, 1303.338 1255.078 M 1401 1255.074 C 1388.584 1257.075, 1378.087 1264.004, 1373.274 1273.377 C 1367.999 1283.650, 1370.533 1297.021, 1379.155 1304.401 C 1384.174 1308.697, 1390.928 1311.243, 1406.204 1314.596 C 1425.797 1318.898, 1430 1321.763, 1430 1330.815 C 1430 1338.850, 1422.449 1343.944, 1410.500 1343.972 C 1398.042 1344.002, 1391.241 1340.723, 1387.287 1332.781 C 1385.182 1328.554, 1384.654 1328.119, 1382.219 1328.602 C 1380.723 1328.898, 1376.800 1329.672, 1373.500 1330.320 C 1367.925 1331.416, 1367.524 1331.677, 1367.841 1334 C 1368.440 1338.387, 1373.272 1346.059, 1378.261 1350.545 C 1388.392 1359.653, 1407.413 1362.801, 1425.683 1358.392 C 1431.187 1357.064, 1439.673 1352.104, 1443.287 1348.104 C 1448.433 1342.408, 1450 1338.029, 1450 1329.346 C 1450 1320.913, 1448.652 1316.951, 1443.970 1311.618 C 1438.570 1305.469, 1431.886 1302.639, 1411.946 1298.062 C 1404.900 1296.445, 1397.783 1294.422, 1396.129 1293.567 C 1387.294 1288.998, 1388.080 1277.560, 1397.544 1272.979 C 1402.160 1270.744, 1414.808 1270.221, 1419.685 1272.064 C 1423.177 1273.383, 1427.702 1277.587, 1429.655 1281.327 C 1430.971 1283.848, 1431.530 1284.094, 1434.815 1283.604 C 1436.842 1283.301, 1440.638 1282.765, 1443.250 1282.413 C 1449.125 1281.621, 1449.320 1280.257, 1444.781 1271.741 C 1441.001 1264.648, 1435.524 1260.250, 1426.591 1257.131 C 1420.011 1254.834, 1408.321 1253.895, 1401 1255.074 M 893.932 1269.750 C 893.877 1280.617, 893.921 1351.374, 893.985 1356.750 C 893.996 1357.661, 896.575 1358, 903.500 1358 L 913 1358 913 1307 L 913 1256 903.500 1256 L 894 1256 893.932 1269.750 M 1039.759 1272.423 C 1034.263 1274.385, 1031.320 1276.575, 1027.970 1281.200 C 1025.254 1284.950, 1022 1293.387, 1022 1296.682 C 1022 1297.740, 1027.334 1298, 1049.088 1298 L 1076.176 1298 1075.488 1293.750 C 1073.167 1279.393, 1063.118 1270.918, 1048.568 1271.044 C 1045.781 1271.068, 1041.817 1271.689, 1039.759 1272.423 M 1296.332 1272.872 C 1293.490 1273.843, 1289.654 1275.789, 1287.807 1277.198 C 1280.354 1282.883, 1276.170 1296.497, 1277.388 1311.103 C 1279.100 1331.632, 1287.945 1341.969, 1304.500 1342.791 C 1313.846 1343.255, 1320.975 1339.841, 1325.650 1332.664 C 1334.103 1319.688, 1334.123 1294.482, 1325.691 1282.540 C 1319.037 1273.118, 1307.113 1269.191, 1296.332 1272.872 M 680 1300.484 L 680 1309 707.540 1309 L 735.081 1309 734.790 1300.750 L 734.500 1292.500 707.250 1292.234 L 680 1291.968 680 1300.484" stroke="none" fill="#ac4b33" fill-rule="evenodd"/></svg>